<svg xmlns="http://www.w3.org/2000/svg" width="250" height="50" viewBox="0 0 2140780 428156" shape-rendering="geometricPrecision" text-rendering="geometricPrecision" image-rendering="optimizeQuality" fill-rule="evenodd" clip-rule="evenodd"><defs><style><![CDATA[
    .str0 {stroke:black;stroke-width:4667.96;stroke-linecap:round}
    .str1 {stroke:#231F20;stroke-width:4667.96;stroke-linecap:round}
    .fil0 {fill:none}
    .fil3 {fill:black}
    .fil2 {fill:#6AD7E5}
    .fil1 {fill:#F6D2A2}
    .fil4 {fill:white}
   ]]></style></defs><g id="Layer_x0020_1"><path class="fil0" d="M0 0h428156v428156H0zm428156 0h428156v428156H428156zm428156 0h428156v428156H856312zm428156 0h428156v428156h-428156zm428156 0h428156v428156h-428156z"/><g id="_2199025138240"><path class="fil1 str0" d="M335742 178066c1886-14551 20263-59829 38294-47447 22419 9591-4894 33008-2743 49362-8469 35010-41992 13601-35551-1915z"/><path class="fil0 str0" d="M374036 130619c-3882 4803-9364 8309-11504 14363"/></g><g id="_2199025142304"><path class="fil1 str0" d="M92410 309807c-1885-14551-20262-59829-38294-47448-22419 9591 4894 33009 2743 49363 8470 35010 41992 13600 35551-1915z"/><path class="fil0 str0" d="M54117 262360c3882 4803 9364 8308 11504 14363"/></g><g id="_2199025145760"><path class="fil1 str1" d="M222169 98400c12791-1996 22239-18031 14703-29667-9981-15412-29015-3410-41446-4183-14196 701-26361-6356-36884 6773-11704 14601 7345 26693 21920 31675l41707-4598z"/><path class="fil2 str0" d="M45801 222684c758-29449 8666-55893 37025-72907 40694-19990 36848-64609 121746-70546 63438-8199 90050 34849 126508 50020 28625 11911 42883 40388 48818 69985 52625 7218 51023 45464 3135 37977-4184 70459-57173 123006-131468 134995-3481 11120-13479 19522-25804 20384-12884 901-24396-6711-29031-18047-79313-4902-137453-46109-148651-113834-45975 13779-52826-23503-2278-38027z"/><path class="fil3" d="M223798 72911c3307 11541-6906 19617-18649 22400-12315 2919-26314 18-28167-10809-2472-14458 8183-23434 20043-25485 11188-1934 23449 2293 26773 13894zM58243 247368c-684 268-1380 528-2083 778-11109 3954-24182 5538-26662 863-3311-6244 5837-12682 16589-16135 1516-486 3064-913 4613-1272l7543 15766zm314717-22007c715 170 1440 331 2172 481 11550 2369 24716 2118 26522-2857 2409-6644-7546-11746-18674-13668-1568-272-3160-479-4744-619l-5276 16663z"/><path class="fil0 str0" d="M60622 256055c-4430 1940-8593 3471-12477 4638m322145-26292c4658 1304 8993 2241 13003 2856"/></g><g id="_2199025159648"><path class="fil4 str0" d="M334649 152053c-17321 22581-107468 10915-101434-14629 4082-67820 115256-54734 101434 14629z"/><ellipse class="fil3" cx="278626" cy="98634" rx="15262" ry="16531"/><path class="fil4 str0" d="M89307 156264c17320 22582 107467 10916 101433-14628-4081-67821-115256-54734-101433 14628z"/><ellipse class="fil3" cx="134672" cy="105093" rx="15262" ry="16531"/></g><g id="_2199025110976"><path class="fil1 str0" d="M763898 211001c1886-14551 20263-59829 38295-47447 22418 9591-4895 33008-2744 49362-8469 35010-41991 13601-35551-1915z"/><path class="fil0 str0" d="M802192 163554c-3882 4803-9364 8309-11504 14363"/></g><g id="_2199126334192"><path class="fil1 str0" d="M520567 276872c-1886-14551-20263-59830-38295-47448-22419 9591 4895 33008 2743 49362 8470 35011 41992 13601 35552-1914z"/><path class="fil0 str0" d="M482273 229425c3882 4803 9364 8308 11504 14363"/></g><g id="_2199126334576"><path class="fil1 str1" d="M652540 98572c12824-1774 22551-17641 15218-29407-9710-15584-28950-3915-41366-4905-14206 453-26246-6815-36997 6127-11957 14396 6878 26818 21364 32054l41781-3869z"/><path class="fil2 str0" d="M474030 219758c1272-29431 9640-55734 38292-72249 41036-19277 37969-63957 122958-68411 63572-7090 89428 36416 125615 52221 28414 12408 42173 41130 47591 70826 52491 8135 50221 46347 2471 38025-5413 70376-59311 121990-133804 132681-3674 11057-13818 19284-26156 19930-12898 676-24275-7136-28711-18551-79216-6285-136627-48500-146642-116411-46209 12975-52408-24421-1614-38061z"/><path class="fil3" d="M654615 73115c3104 11597-7248 19493-19038 22071-12364 2703-26311-442-27974-11299-2220-14499 8591-23288 20484-25131 11221-1739 23406 2701 26528 14359zM486039 244655c-688 257-1389 504-2096 743-11176 3759-24275 5115-26673 396-3201-6300 6058-12578 16868-15842 1524-460 3080-860 4634-1192l7267 15895zm315053-16511c712 184 1434 356 2163 519 11508 2570 24676 2550 26568-2393 2525-6601-7339-11877-18431-13993-1564-298-3152-533-4734-700l-5566 16567z"/><path class="fil0 str0" d="M488267 253383c-4464 1862-8653 3320-12557 4420m322556-20667c4634 1386 8952 2399 12950 3084"/></g><g id="_2199126274992"><path class="fil4 str0" d="M762805 152053c-17321 22581-107468 10915-101434-14629 4082-67820 115256-54734 101434 14629z"/><ellipse class="fil3" cx="706782" cy="98634" rx="15262" ry="16531"/><path class="fil4 str0" d="M517463 156264c17320 22582 107467 10916 101433-14628-4081-67821-115256-54734-101433 14628z"/><ellipse class="fil3" cx="562828" cy="105093" rx="15262" ry="16531"/></g><g id="_2199126297136"><path class="fil1 str0" d="M1192054 243936c1886-14550 20263-59829 38295-47447 22418 9591-4895 33008-2744 49362-8469 35011-41991 13601-35551-1915z"/><path class="fil0 str0" d="M1230348 196489c-3882 4804-9364 8309-11504 14364"/></g><g id="_2199126298480"><path class="fil1 str0" d="M948723 243936c-1886-14550-20263-59829-38295-47447-22418 9591 4895 33008 2743 49362 8470 35011 41992 13601 35552-1915z"/><path class="fil0 str0" d="M910429 196489c3882 4804 9364 8309 11504 14364"/></g><g id="_2199126299440"><path class="fil1 str1" d="M1087328 99285c12899-1099 23443-16436 16736-28570-8881-16070-28706-5424-41053-7063-14210-291-25854-8179-37267 4183-12694 13750 5465 27141 19657 33127l41927-1677z"/><path class="fil2 str0" d="M902719 210964c2811-29325 12544-55154 42021-70147 41989-17103 41265-61882 126370-61882 63856-3753 87400 41046 122711 58723 27725 13879 39961 43281 43818 73220 51993 10872 47727 48912 478 38103-9089 69995-65614 118718-140565 125495-4248 10850-14808 18535-27164 18535-12915 0-23867-8397-27700-20028-78778-10423-133902-55585-140349-123926-46824 10538-51058-27131 380-38093z"/><path class="fil3" d="M1090731 73972c2494 11743-8258 19087-20166 21044-12489 2053-26251-1817-27344-12747-1458-14596 9797-22806 21771-24025 11296-1149 23232 3923 25739 15728zM913410 236455c-702 220-1414 431-2133 631-11357 3169-24509 3838-26657-999-2867-6460 6708-12245 17674-14938 1546-380 3120-698 4690-948l6426 16254zm315485 0c701 220 1413 431 2132 631 11358 3169 24510 3838 26658-999 2867-6460-6708-12245-17675-14938-1546-380-3120-698-4690-948l-6425 16254z"/><path class="fil0 str0" d="M915177 245287c-4555 1626-8815 2863-12771 3757m323195-3757c4555 1626 8815 2863 12771 3757"/></g><g id="_2199126304240"><path class="fil4 str0" d="M1190961 152053c-17321 22581-107468 10915-101434-14629 4082-67820 115256-54734 101434 14629z"/><ellipse class="fil3" cx="1134938" cy="98634" rx="15262" ry="16531"/><path class="fil4 str0" d="M945619 156264c17320 22582 107467 10916 101434-14628-4082-67821-115257-54734-101434 14628z"/><ellipse class="fil3" cx="990984" cy="105093" rx="15262" ry="16531"/></g><g id="_2199126311056"><path class="fil1 str0" d="M1620210 276872c1886-14551 20263-59830 38295-47448 22418 9591-4895 33008-2743 49362-8470 35011-41992 13601-35552-1914z"/><path class="fil0 str0" d="M1658504 229425c-3882 4803-9364 8308-11504 14363"/></g><g id="_2199126311536"><path class="fil1 str0" d="M1376879 211001c-1886-14551-20263-59829-38295-47447-22418 9591 4895 33008 2744 49362 8469 35010 41991 13601 35551-1915z"/><path class="fil0 str0" d="M1338585 163554c3882 4803 9364 8309 11504 14363"/></g><g id="_2199126318992"><path class="fil1 str1" d="M1522069 100345c12939-423 24271-15187 18208-27655-8028-16513-28382-6920-40627-9202-14175-1035-25390-9521-37435 2226-13396 13067 4037 27390 17897 34112l41957 519z"/><path class="fil2 str0" d="M1331869 202208c4341-29137 15413-54421 45634-67851 42827-14882 44447-59637 129435-55183 63965-406 85132 45564 119469 65065 26961 15310 37642 45313 39926 75412 51354 13578 45102 51344-1516 38076-12740 69424-71738 115121-146941 117967-4809 10613-15757 17734-28096 17087-12897-675-23395-9634-26614-21450-78125-14531-130809-62516-133671-131101-47311 8073-49568-29766 2374-38022z"/><path class="fil3" d="M1526792 75244c1876 11859-9245 18629-21240 19960-12579 1397-26120-3188-26639-14161-693-14651 10978-22262 22999-22852 11341-556 22994 5133 24880 17053zm-185582 152980c-712 184-1434 356-2163 519-11507 2571-24676 2550-26568-2393-2525-6601 7339-11877 18432-13993 1564-298 3152-533 4733-700l5566 16567zm315053 16511c689 257 1389 505 2097 743 11175 3759 24274 5115 26672 396 3201-6300-6057-12578-16868-15842-1524-460-3079-860-4634-1192l-7267 15895z"/><path class="fil0 str0" d="M1342513 237136c-4634 1386-8953 2399-12950 3084m322948 13163c4465 1862 8653 3321 12558 4420"/></g><g id="_2199120094160"><path class="fil4 str0" d="M1619117 152053c-17321 22581-107468 10915-101434-14629 4082-67820 115256-54734 101434 14629z"/><ellipse class="fil3" cx="1563094" cy="98634" rx="15262" ry="16531"/><path class="fil4 str0" d="M1373775 156264c17320 22582 107467 10916 101434-14628-4082-67821-115257-54734-101434 14628z"/><ellipse class="fil3" cx="1419140" cy="105093" rx="15262" ry="16531"/></g><g id="_2199120121552"><path class="fil1 str0" d="M2048366 309807c1886-14551 20263-59829 38295-47448 22418 9591-4895 33009-2743 49363-8470 35010-41992 13600-35552-1915z"/><path class="fil0 str0" d="M2086660 262360c-3882 4803-9364 8308-11504 14363"/></g><g id="_2199120057840"><path class="fil1 str0" d="M1805035 178066c-1886-14551-20263-59829-38295-47447-22418 9591 4895 33008 2744 49362 8469 35010 41991 13601 35551-1915z"/><path class="fil0 str0" d="M1766741 130619c3882 4803 9364 8309 11504 14363"/></g><g id="_2199120059920"><path class="fil1 str1" d="M1952406 100778c12944-197 24532-14761 18688-27333-7739-16651-28258-7414-40460-9909-14156-1282-25221-9963-37468 1572-13622 12831 3558 27457 17298 34418l41942 1252z"/><path class="fil2 str0" d="M1760457 199307c4849-29058 16360-54144 46811-67045 43080-14132 45481-58852 130379-52916 63962 710 84324 47043 118315 67140 26689 15779 36845 45963 38604 76098 51108 14472 44199 52123-2181 38044-13950 69190-73736 113852-148977 115384-4994 10527-16065 17456-28390 16595-12884-901-23224-10042-26236-21912-77859-15893-129698-64790-131362-133414-47445 7246-49041-30627 3037-37974z"/><path class="fil3" d="M1957566 75764c1668 11889-9569 18464-21585 19586-12602 1177-26061-3644-26388-14624-437-14661 11364-22067 23394-22447 11349-359 22902 5534 24579 17485zm-188224 149718c-715 170-1439 331-2171 481-11550 2369-24717 2119-26523-2857-2409-6644 7546-11746 18674-13668 1569-272 3161-479 4745-619l5275 16663zm314717 22007c684 269 1380 528 2084 779 11108 3953 24181 5538 26662 862 3310-6244-5838-12682-16590-16135-1516-486-3063-913-4612-1272l-7544 15766z"/><path class="fil0 str0" d="M1770490 234415c-4658 1305-8993 2242-13003 2857m322671 18797c4430 1941 8593 3472 12477 4639"/></g><g id="_2199120065936"><path class="fil4 str0" d="M2047273 152053c-17321 22581-107467 10915-101434-14629 4082-67820 115257-54734 101434 14629z"/><ellipse class="fil3" cx="1991250" cy="98634" rx="15262" ry="16531"/><path class="fil4 str0" d="M1801931 156264c17320 22582 107467 10916 101434-14628-4082-67821-115257-54734-101434 14628z"/><ellipse class="fil3" cx="1847297" cy="105093" rx="15262" ry="16531"/></g></g></svg>