<svg xmlns="http://www.w3.org/2000/svg" width="60" height="82" viewBox="0 0 348607 474478" shape-rendering="geometricPrecision" text-rendering="geometricPrecision" image-rendering="optimizeQuality" fill-rule="evenodd" clip-rule="evenodd"><defs><style><![CDATA[
    .str0 {stroke:black;stroke-width:2666.46;stroke-linecap:round}
    .str3 {stroke:#231F20;stroke-width:2666.46;stroke-linecap:round}
    .str1 {stroke:black;stroke-width:2584.5;stroke-linecap:round}
    .str2 {stroke:black;stroke-width:2507.58;stroke-linecap:round}
    .fil2 {fill:none}
    .fil4 {fill:black}
    .fil3 {fill:#6AD7E5}
    .fil1 {fill:#C6B198}
    .fil0 {fill:#F6D2A2}
    .fil5 {fill:white}
   ]]></style></defs><g id="Layer_x0020_1"><path class="fil0 str0" d="M4620 256737c679 13999 14664 7521 20998 3145 6012-4155 7771-701 8298-8901 346-5389 967-10779 662-16189-9092-824-18982 1341-26436 6756-3839 2789-11038 11694-3522 15189z"/><path class="fil1" d="M4620 256737c2035-757 4192-1295 5574-3136l-5574 3136zm0 0z"/><path id="1" class="fil2 str0" d="M4620 256737c2035-757 4192-1295 5574-3136m-5574 3136z"/><path class="fil3 str0" d="M36938 89969C-16652 74899 23197 6724 66231 34765L36938 89969zm238098-60320c42419-29794 80750 37427 31452 54340l-31452-54340z"/><path class="fil0 str0" d="M284160 429024c10775 6666 30469 26824 14306 36599-15530 14219-24223-15608-37854-19741 5871-7972 13312-15241 23548-16858z"/><path class="fil2 str0" d="M298466 465622c-2396-4765-3201-10326-7201-14166"/><path class="fil0 str0" d="M91670 451804c-12646 1957-19764 13367-30307 19160-9934 5924-13735-1896-14630-3484-1557-710-1426 662-3829-1759-9210-14534 9596-25159 19388-32379 13639-2757 22186 9067 29378 18462z"/><path class="fil2 str0" d="M46734 467480c482-5540 4874-9250 6966-13934"/><path class="fil4" d="M39174 71140c-7070-3740-12257-8820-7932-16997 4004-7571 11442-6749 18513-3009L39174 71140zm256145-7111c7070-3740 12257-8819 7932-16996-4004-7571-11442-6749-18513-3009l10581 20005z"/><path class="fil0 str0" d="M343987 254959c-679 13999-14664 7522-20998 3145-6013-4154-7771-701-8299-8901-345-5389-967-10779-661-16189 9092-824 18981 1341 26436 6756 3838 2790 11038 11694 3522 15189z"/><path class="fil1" d="M343987 254959c-2036-757-4193-1295-5574-3136l5574 3136zm0 0z"/><path id="1" class="fil2 str0" d="M343987 254959c-2036-757-4193-1295-5574-3136m5574 3136z"/><path class="fil3 str0" d="M168933 1333c53651 0 103944 7673 130161 59218 23533 57775 15164 120076 18753 181135 3083 52430 9916 113002-14407 161588-25587 51117-89525 63975-142202 62092-41376-1481-91359-14979-114712-52783-27397-44349-14426-110294-12436-159641 2357-58455-15834-117088 3370-174288C57382 19318 111109 5908 168933 1333z"/><path class="fil5 str1" d="M178405 73355c9632 55995 101161 41190 88014-15284-11789-50642-91216-36624-88014 15284z"/><path class="fil5 str2" d="M69028 82412c12485 48749 90533 36268 87591-12632-3524-58566-99527-47265-87591 12632z"/><path class="fil5 str0" d="M189448 140548c41 7279 1654 15453 277 23197-1858 3513-5504 3884-8647 5304-4346-682-8000-3536-9743-7601-1116-8839 416-17399 698-26242l17415 5342z"/><ellipse class="fil4" cx="113591" cy="94085" rx="13179" ry="14275"/><ellipse class="fil5" cx="119586" cy="97306" rx="3107" ry="3628"/><ellipse class="fil4" cx="224018" cy="90530" rx="12960" ry="14275"/><ellipse class="fil5" cx="229913" cy="93751" rx="3055" ry="3628"/><path class="fil5 str0" d="M151785 139755c-5751 13936 3206 41803 18809 21249-1116-8840 415-17399 697-26242l-19506 4993z"/><path class="fil0 str3" d="M153752 112917c-10717 914-19478 13657-13905 23738 7379 13353 23851-1181 34109 180 11808 242 21482 12485 30965 2213 10547-11424-4541-22550-16333-27524l-34836 1393z"/><path class="fil4" d="M152403 112359c-794-18568 34607-20889 38787-5347 4171 15505-37044 19107-38787 5347-1391-10988 0 0 0 0z"/></g></svg>